Gatunek : Dokumentalny, Biograficzny
Kraj : Polska
Wyciekł : wrzesień.2010

\"Tajne Specjalnego Znaczenia\" to tytuł roboczej wersji filmu zrealizowanego przez dziennikarzy TVN-u, który dziwnymi ścieżkami \"wyciekł\" do internetu.
Niewielu go widziało, jeszcze mniej o nim słyszało. Za to pewnie wszystkim jest znana sprawa domniemanej współpracy Lecha Wałęsy ze Służbą Bezpieczeństwa.
Trójka krakowskich dziennikarzy telewizji TVN: Monika Góralewska, Piotr Pizło i Krzysztof Brożyk, to autorzy nigdy nie wyemitowanego dokumentu który ze szczególną starannością bada wątki sprawy domniemanej współpracy pierwszego prezydenta Wolnej Polski z służbami PRL.

Pikanterii tej sprawie dodaje fakt, że od czasu zakończenia prac montażowych nad dokumentem minęło już ponad 1,5 roku. Film ten możemy oglądać tylko dzięki kontrolowanemu(?) przeciekowi pewnie z samej TVN.

Dlaczego ten dokument nigdy nie został wyemitowany? Nie wiadomo. Telewizja oficjalnie tłumaczy, że to z powodu konsultacji prawnych i przedłużających się prób zdobycia komentarza samego głównego zainteresowanego.

Mając na uwadze sprawę cenzury dokumentu warto wziąść na poprawkę, że telewizja TVN od zawsze stała po stronie osób i środowisk, które uparcie próbowały marginalizować tezę, że \"TW Bolek\" to właśnie laureat pokojowej Nagrody Nobla. A wymowa i wnioski jakie wyciągają autorzy dokumentu są z cała pewnością niewygodne dla oficjalnej linii informacyjnej grupy ITI.

PARAMETRY TECHNICZNE

Format : AVI
Format/Info : Audio Video Interleave
File size : 351 MiB
Duration : 55mn 8s
Overall bit rate : 889 Kbps
Writing library : VirtualDub build 29896/release

Video #0
ID : 0
Format : MPEG-4 Visual
Format profile : AdvancedSimple@L5
Format settings, BVOP : Yes
Format settings, QPel : No
Format settings, GMC : No warppoints
Format settings, Matrix : Default (H.263)
Codec ID : DX50
Codec ID/Hint : DivX 5
Duration : 55mn 8s
Bit rate : 751 Kbps
Width : 512 pixels
Height : 288 pixels
Display aspect ratio : 16:9
Frame rate : 25.000 fps
Resolution : 24 bits
Colorimetry : 4:2:0
Scan type : Progressive
Bits/(Pixel*Frame) : 0.204
Stream size : 296 MiB (85%)
Writing library : XviD 1.2.1 (UTC 2008-12-04)

Audio #1
ID : 1
Format : MPEG Audio
Format version : Version 1
Format profile : Layer 3
Codec ID : 55
Codec ID/Hint : MP3
Duration : 55mn 8s
Bit rate mode : Constant
Bit rate : 128 Kbps
Channel(s) : 2 channels
Sampling rate : 44.1 KHz
Resolution : 16 bits
Stream size : 50.5 MiB (14%)
Alignment : Split accross interleaves
Interleave, duration : 40 ms (1.00 video frame)
Interleave, preload duration : 500 ms